<svg width="97" height="76" viewBox="0 0 97 76" fill="none" xmlns="http://www.w3.org/2000/svg">
<g id="Group">
<g id="Group_2">
<g id="Group_3">
<path id="Vector" d="M34.8706 40.5623H32.1383V37.5301H34.8706C35.8948 37.5301 36.578 38.0353 36.578 39.0462C36.578 40.0571 35.8948 40.5623 34.8706 40.5623ZM32.1383 30.0972H34.7149C35.5224 30.0972 36.0191 30.5434 36.0191 31.3756C36.0191 32.208 35.5224 32.6542 34.7149 32.6542H32.1383V30.0972ZM39.1855 35.0621C40.5827 34.2597 41.4519 32.8323 41.4519 30.6624C41.4519 27.4512 38.7201 25.2213 34.7462 25.2213H26.8607V45.4382H34.8706C39.0926 45.4382 42.0108 43.0597 42.0108 39.7895C42.0108 37.5001 40.893 35.954 39.1855 35.0621Z" fill="white"/>
</g>
</g>
<g id="Group_4">
<g id="Group_5">
<path id="Vector_2" d="M50.3939 25.2214H45.1163V45.4383H57.4725V40.5624H50.3939V25.2214Z" fill="white"/>
</g>
</g>
<g id="Group_6">
<g id="Group_7">
<path id="Vector_3" d="M69.5504 40.7109C66.4462 40.7109 64.1177 38.3029 64.1177 35.3298C64.1177 32.3867 66.4462 29.9486 69.5504 29.9486C72.6243 29.9486 74.9836 32.3867 74.9836 35.3298C74.9836 38.3029 72.6243 40.7109 69.5504 40.7109ZM69.5504 24.8947C63.3723 24.8947 58.6844 29.4135 58.6844 35.3298C58.6844 41.2461 63.3723 45.7654 69.5504 45.7654C75.7285 45.7654 80.4164 41.2461 80.4164 35.3298C80.4164 29.4135 75.7285 24.8947 69.5504 24.8947Z" fill="white"/>
</g>
</g>
<g id="Group_8">
<g id="Group_9">
<path id="Vector_4" d="M93.0213 40.7109C89.9171 40.7109 87.5886 38.3029 87.5886 35.3298C87.5886 32.3867 89.9171 29.9486 93.0213 29.9486C94.0777 29.9486 95.0292 30.1641 95.8462 30.5142L97 25.5684C95.7781 25.1407 94.4284 24.8947 93.0213 24.8947C86.8432 24.8947 82.1553 29.4135 82.1553 35.3298C82.1553 41.011 86.4824 45.392 92.2964 45.7322L93.4723 40.6914C93.3227 40.6999 93.1744 40.7109 93.0213 40.7109Z" fill="white"/>
</g>
</g>
<g id="Group_10">
<g id="Group_11">
<path id="Vector_5" d="M6.38727 75.7327V71.0649H22.4071V66.0109H6.38727V61.3431H1.29559V75.7327H6.38727Z" fill="white"/>
</g>
</g>
<g id="Group_12">
<g id="Group_13">
<path id="Vector_6" d="M17.4705 49.7776C17.4705 52.7503 14.956 54.9801 11.8513 54.9801C8.7779 54.9801 6.23212 52.7503 6.23212 49.7776C6.23212 46.8339 8.7779 44.5745 11.8513 44.5745C14.956 44.5745 17.4705 46.8339 17.4705 49.7776ZM0.95459 49.7776C0.95459 55.6939 5.67321 60.1831 11.8513 60.1831C18.0294 60.1831 22.7487 55.6939 22.7487 49.7776C22.7487 43.8613 18.0294 39.3715 11.8513 39.3715C5.67321 39.3715 0.95459 43.8613 0.95459 49.7776Z" fill="white"/>
</g>
</g>
<g id="Group_14">
<g id="Group_15">
<path id="Vector_7" d="M14.7078 25.9628C16.4153 25.9628 17.626 27.0332 17.626 28.8169C17.626 30.6006 16.4153 31.6711 14.7078 31.6711H1.29559V36.7251H14.2727C19.6438 36.7251 22.7485 33.6628 22.7485 28.8169C22.7485 23.971 19.6438 20.9088 14.2727 20.9088H1.29559V25.9628H14.7078Z" fill="white"/>
</g>
</g>
<g id="Group_16">
<g id="Group_17">
<path id="Vector_8" d="M9.92655 9.5808V12.0187H6.38727V9.5808C6.38727 8.5999 7.00833 7.91619 8.15691 7.91619C9.30549 7.91619 9.92655 8.5999 9.92655 9.5808ZM12.8762 6.13197C12.2551 4.28869 10.5476 2.71305 7.56724 2.71305C3.53121 2.71305 1.29559 5.5077 1.29559 9.55126V17.0727H22.4071V12.0187H15.0182V11.5131C15.0182 9.10505 18.1537 7.79707 22.4071 7.20233V1.94025C18.1229 2.29699 14.335 3.51588 12.8762 6.13197Z" fill="white"/>
</g>
</g>
<g id="Group_18">
<g id="Group_19">
<path id="Vector_9" d="M34.859 16.2075H32.158V5.74238H34.859C38.2432 5.74238 39.9507 8.03176 39.9507 10.9749C39.9507 13.9481 38.2432 16.2075 34.859 16.2075ZM34.9212 0.866455H26.8805V21.0834H34.9212C41.4095 21.0834 45.3834 16.8913 45.3834 10.9749C45.3834 5.05855 41.4095 0.866455 34.9212 0.866455Z" fill="white"/>
</g>
</g>
<g id="Group_20">
<g id="Group_21">
<path id="Vector_10" d="M59.447 13.7105C59.447 15.3457 58.3291 16.5052 56.4666 16.5052C54.6039 16.5052 53.4862 15.3457 53.4862 13.7105V0.866455H48.2086V13.2938C48.2086 18.4374 51.4063 21.4105 56.4666 21.4105C61.5269 21.4105 64.7246 18.4374 64.7246 13.2938V0.866455H59.447V13.7105Z" fill="white"/>
</g>
</g>
<g id="Group_22">
<g id="Group_23">
<path id="Vector_11" d="M27.2371 51.4233H47.7491V71.6392H27.2371V51.4233Z" fill="white"/>
</g>
</g>
</g>
</svg>
