<svg width="1408" height="1028" viewBox="0 0 1408 1028" fill="none" xmlns="http://www.w3.org/2000/svg">
<g opacity="0.04">
<line x1="31.9664" y1="-88.077" x2="31.9663" y2="1250.68" stroke="white"/>
<line x1="181.455" y1="-88.077" x2="181.455" y2="1250.68" stroke="white"/>
<line x1="330.944" y1="-88.077" x2="330.944" y2="1250.68" stroke="white"/>
<line x1="480.432" y1="-88.077" x2="480.432" y2="1250.68" stroke="white"/>
<line x1="629.921" y1="-88.077" x2="629.921" y2="1250.68" stroke="white"/>
<line x1="779.41" y1="-88.077" x2="779.41" y2="1250.68" stroke="white"/>
<line x1="928.899" y1="-88.077" x2="928.899" y2="1250.68" stroke="white"/>
<line x1="1078.39" y1="-88.077" x2="1078.39" y2="1250.68" stroke="white"/>
<line x1="1227.88" y1="-88.077" x2="1227.88" y2="1250.68" stroke="white"/>
<line x1="1377.36" y1="-88.077" x2="1377.36" y2="1250.68" stroke="white"/>
<line x1="1825.33" y1="58.5892" x2="-417" y2="58.589" stroke="white"/>
<line x1="1825.33" y1="208.078" x2="-417" y2="208.078" stroke="white"/>
<line x1="1825.33" y1="357.567" x2="-417" y2="357.567" stroke="white"/>
<line x1="1825.33" y1="507.056" x2="-417" y2="507.056" stroke="white"/>
<line x1="1825.33" y1="656.545" x2="-417" y2="656.544" stroke="white"/>
<line x1="1825.33" y1="806.033" x2="-417" y2="806.033" stroke="white"/>
<line x1="1825.33" y1="955.522" x2="-417" y2="955.522" stroke="white"/>
</g>
</svg>
