<svg viewBox="0 0 800 440" xmlns="http://www.w3.org/2000/svg" font-family="system-ui,sans-serif">
  <rect width="800" height="440" fill="#f8f9fb"/>
  <defs>
    <radialGradient id="g1" cx="50%" cy="50%" r="50%">
      <stop offset="0%" stop-color="#f5a623" stop-opacity="0.08"/>
      <stop offset="100%" stop-color="#f8f9fb" stop-opacity="0"/>
    </radialGradient>
  </defs>
  <rect width="800" height="440" fill="url(#g1)"/>

  <!-- Central brand node -->
  <circle cx="400" cy="220" r="58" fill="#041020"/>
  <circle cx="400" cy="220" r="52" fill="#f5a623" opacity="0.15"/>
  <text x="400" y="214" text-anchor="middle" fill="#f5a623" font-weight="700" font-size="13">SB</text>
  <text x="400" y="232" text-anchor="middle" fill="rgba(255,255,255,0.7)" font-size="10">MARKETING</text>

  <!-- Connection lines -->
  <line x1="400" y1="162" x2="400" y2="100" stroke="#f5a623" stroke-width="1.5" stroke-dasharray="4,3" opacity="0.5"/>
  <line x1="400" y1="278" x2="400" y2="340" stroke="#f5a623" stroke-width="1.5" stroke-dasharray="4,3" opacity="0.5"/>
  <line x1="342" y1="200" x2="240" y2="160" stroke="#f5a623" stroke-width="1.5" stroke-dasharray="4,3" opacity="0.4"/>
  <line x1="342" y1="240" x2="200" y2="280" stroke="#f5a623" stroke-width="1.5" stroke-dasharray="4,3" opacity="0.4"/>
  <line x1="458" y1="200" x2="560" y2="150" stroke="#f5a623" stroke-width="1.5" stroke-dasharray="4,3" opacity="0.4"/>
  <line x1="458" y1="240" x2="600" y2="290" stroke="#f5a623" stroke-width="1.5" stroke-dasharray="4,3" opacity="0.4"/>
  <line x1="350" y1="170" x2="250" y2="100" stroke="#f5a623" stroke-width="1" stroke-dasharray="3,4" opacity="0.25"/>
  <line x1="450" y1="170" x2="600" y2="80" stroke="#f5a623" stroke-width="1" stroke-dasharray="3,4" opacity="0.25"/>

  <!-- Satellite nodes -->
  <!-- Instagram -->
  <circle cx="400" cy="74" r="34" fill="#fff" stroke="#e8eaed" stroke-width="1.5"/>
  <rect x="384" y="58" width="32" height="32" rx="9" fill="none" stroke="#d4890a" stroke-width="2"/>
  <circle cx="400" cy="74" r="9" fill="none" stroke="#d4890a" stroke-width="2"/>
  <circle cx="411" cy="63" r="2.5" fill="#d4890a"/>
  <text x="400" y="122" text-anchor="middle" fill="#6b7280" font-size="11">Instagram</text>
  <text x="400" y="136" text-anchor="middle" fill="#d4890a" font-size="10" font-weight="700">+24k abonnés</text>

  <!-- Facebook -->
  <circle cx="400" cy="366" r="34" fill="#fff" stroke="#e8eaed" stroke-width="1.5"/>
  <rect x="384" y="350" width="32" height="32" rx="9" fill="none" stroke="#d4890a" stroke-width="2"/>
  <text x="400" y="371" text-anchor="middle" fill="#d4890a" font-size="20" font-weight="700">f</text>
  <text x="400" y="408" text-anchor="middle" fill="#6b7280" font-size="11">Facebook</text>
  <text x="400" y="422" text-anchor="middle" fill="#d4890a" font-size="10" font-weight="700">+8.2k fans</text>

  <!-- LinkedIn left -->
  <circle cx="212" cy="148" r="34" fill="#fff" stroke="#e8eaed" stroke-width="1.5"/>
  <rect x="196" y="132" width="32" height="32" rx="9" fill="none" stroke="#d4890a" stroke-width="2"/>
  <text x="212" y="153" text-anchor="middle" fill="#d4890a" font-size="14" font-weight="700">in</text>
  <text x="212" y="196" text-anchor="middle" fill="#6b7280" font-size="11">LinkedIn</text>
  <text x="212" y="210" text-anchor="middle" fill="#d4890a" font-size="10" font-weight="700">+3.1k abonnés</text>

  <!-- TikTok right -->
  <circle cx="588" cy="138" r="34" fill="#fff" stroke="#e8eaed" stroke-width="1.5"/>
  <rect x="572" y="122" width="32" height="32" rx="9" fill="none" stroke="#d4890a" stroke-width="2"/>
  <text x="588" y="143" text-anchor="middle" fill="#d4890a" font-size="14" font-weight="700">tt</text>
  <text x="588" y="186" text-anchor="middle" fill="#6b7280" font-size="11">TikTok</text>
  <text x="588" y="200" text-anchor="middle" fill="#d4890a" font-size="10" font-weight="700">+41k vues</text>

  <!-- Google -->
  <circle cx="172" cy="282" r="34" fill="#fff" stroke="#e8eaed" stroke-width="1.5"/>
  <text x="172" y="291" text-anchor="middle" fill="#d4890a" font-size="18" font-weight="700">G</text>
  <text x="172" y="330" text-anchor="middle" fill="#6b7280" font-size="11">Google Ads</text>
  <text x="172" y="344" text-anchor="middle" fill="#d4890a" font-size="10" font-weight="700">ROAS 4.2x</text>

  <!-- Meta Ads -->
  <circle cx="628" cy="292" r="34" fill="#fff" stroke="#e8eaed" stroke-width="1.5"/>
  <text x="628" y="301" text-anchor="middle" fill="#d4890a" font-size="14" font-weight="700">Meta</text>
  <text x="628" y="340" text-anchor="middle" fill="#6b7280" font-size="11">Meta Ads</text>
  <text x="628" y="354" text-anchor="middle" fill="#d4890a" font-size="10" font-weight="700">CPL -38%</text>

  <!-- Pulse rings on center -->
  <circle cx="400" cy="220" r="70" fill="none" stroke="#f5a623" stroke-width="1" opacity="0.2"/>
  <circle cx="400" cy="220" r="90" fill="none" stroke="#f5a623" stroke-width="0.5" opacity="0.1"/>
</svg>
