<svg version="1.0" preserveAspectRatio="xMidYMid meet" height="500" viewBox="0 0 375 374.999991" zoomAndPan="magnify" width="500" xmlns:xlink="http://www.w3.org/1999/xlink" xmlns="http://www.w3.org/2000/svg"><defs><clipPath id="fdf4604699"><path clip-rule="nonzero" d="M 237 58.484375 L 264 58.484375 L 264 94 L 237 94 Z M 237 58.484375"></path></clipPath><clipPath id="595b4a8668"><path clip-rule="nonzero" d="M 111 58.484375 L 138 58.484375 L 138 94 L 111 94 Z M 111 58.484375"></path></clipPath><clipPath id="3a4efaddab"><path clip-rule="nonzero" d="M 58.484375 299 L 70 299 L 70 316.484375 L 58.484375 316.484375 Z M 58.484375 299"></path></clipPath><clipPath id="8f41c81cc6"><path clip-rule="nonzero" d="M 72 299 L 88 299 L 88 316.484375 L 72 316.484375 Z M 72 299"></path></clipPath><clipPath id="4f5a39f445"><path clip-rule="nonzero" d="M 90 299 L 104 299 L 104 316.484375 L 90 316.484375 Z M 90 299"></path></clipPath><clipPath id="00532aa96c"><path clip-rule="nonzero" d="M 107 299 L 120 299 L 120 316.484375 L 107 316.484375 Z M 107 299"></path></clipPath><clipPath id="6724563bb5"><path clip-rule="nonzero" d="M 122 299 L 137 299 L 137 316.484375 L 122 316.484375 Z M 122 299"></path></clipPath><clipPath id="196eaaad3f"><path clip-rule="nonzero" d="M 140 299 L 150 299 L 150 316.484375 L 140 316.484375 Z M 140 299"></path></clipPath><clipPath id="34b234536c"><path clip-rule="nonzero" d="M 153 299 L 165 299 L 165 316.484375 L 153 316.484375 Z M 153 299"></path></clipPath><clipPath id="190fd9ee0f"><path clip-rule="nonzero" d="M 167 299 L 172 299 L 172 316.484375 L 167 316.484375 Z M 167 299"></path></clipPath><clipPath id="efbb228656"><path clip-rule="nonzero" d="M 175 299 L 185 299 L 185 316.484375 L 175 316.484375 Z M 175 299"></path></clipPath><clipPath id="ddaffbd90c"><path clip-rule="nonzero" d="M 193 299 L 208 299 L 208 316.484375 L 193 316.484375 Z M 193 299"></path></clipPath><clipPath id="6d53a5997c"><path clip-rule="nonzero" d="M 211 299 L 221 299 L 221 316.484375 L 211 316.484375 Z M 211 299"></path></clipPath><clipPath id="5a7f9c2900"><path clip-rule="nonzero" d="M 229 299 L 239 299 L 239 316.484375 L 229 316.484375 Z M 229 299"></path></clipPath><clipPath id="16ecd94966"><path clip-rule="nonzero" d="M 239 299 L 254 299 L 254 316.484375 L 239 316.484375 Z M 239 299"></path></clipPath><clipPath id="1aff8471b7"><path clip-rule="nonzero" d="M 261 299 L 275 299 L 275 316.484375 L 261 316.484375 Z M 261 299"></path></clipPath><clipPath id="43ed867fdc"><path clip-rule="nonzero" d="M 276 299 L 291 299 L 291 316.484375 L 276 316.484375 Z M 276 299"></path></clipPath><clipPath id="39c702c078"><path clip-rule="nonzero" d="M 292 299 L 304 299 L 304 316.484375 L 292 316.484375 Z M 292 299"></path></clipPath><clipPath id="0a5c1538e5"><path clip-rule="nonzero" d="M 307 299 L 316.484375 299 L 316.484375 316.484375 L 307 316.484375 Z M 307 299"></path></clipPath></defs><path fill-rule="nonzero" fill-opacity="1" d="M 213.375 81.910156 C 213.375 82.828125 212.609375 83.597656 211.6875 83.597656 C 211.496094 83.597656 211.304688 83.597656 211.113281 83.480469 L 203.910156 101.488281 C 199.046875 100.949219 193.605469 100.566406 187.707031 100.605469 C 181.574219 100.605469 175.984375 101.027344 170.964844 101.640625 L 163.683594 83.480469 C 163.683594 83.480469 163.300781 83.597656 163.109375 83.597656 C 162.191406 83.597656 161.425781 82.828125 161.425781 81.910156 C 161.425781 80.992188 162.191406 80.226562 163.109375 80.226562 C 164.03125 80.226562 164.796875 80.992188 164.796875 81.910156 C 164.796875 82.21875 164.71875 82.484375 164.566406 82.714844 L 174.105469 90.453125 L 173.378906 76.851562 C 173.378906 76.851562 173.109375 76.890625 172.957031 76.890625 C 172.035156 76.890625 171.269531 76.125 171.269531 75.207031 C 171.269531 74.285156 172.035156 73.519531 172.957031 73.519531 C 173.875 73.519531 174.640625 74.285156 174.640625 75.207031 C 174.640625 75.742188 174.410156 76.203125 174.027344 76.507812 L 180.542969 88.347656 L 186.058594 68.617188 C 184.792969 68.234375 183.914062 67.085938 183.914062 65.703125 C 183.914062 64.019531 185.292969 62.679688 186.941406 62.679688 C 188.585938 62.679688 189.964844 64.058594 189.964844 65.703125 C 189.964844 66.96875 189.199219 68.082031 188.089844 68.539062 L 193.527344 89.535156 L 200.691406 76.546875 C 200.308594 76.242188 200.082031 75.78125 200.082031 75.246094 C 200.082031 74.324219 200.847656 73.558594 201.765625 73.558594 C 202.683594 73.558594 203.453125 74.324219 203.453125 75.246094 C 203.453125 76.164062 202.683594 76.929688 201.765625 76.929688 C 201.613281 76.929688 201.496094 76.929688 201.34375 76.890625 L 200.617188 90.492188 L 210.15625 82.753906 C 210.003906 82.523438 209.925781 82.253906 209.925781 81.949219 C 209.925781 81.03125 210.691406 80.261719 211.613281 80.261719 C 212.53125 80.261719 213.296875 81.03125 213.296875 81.949219 Z M 213.375 81.910156" fill="#ad895f"></path><path fill-rule="nonzero" fill-opacity="1" d="M 205.445312 102.175781 L 204.945312 103.480469 L 203.949219 106.046875 C 199.085938 105.511719 193.605469 105.125 187.667969 105.125 C 181.539062 105.125 175.90625 105.546875 170.925781 106.160156 L 169.429688 102.175781 L 170.621094 102.175781 L 171.15625 103.441406 C 171.15625 103.441406 171.5 103.402344 171.652344 103.402344 C 176.480469 102.828125 181.84375 102.484375 187.667969 102.445312 C 193.300781 102.445312 198.507812 102.75 203.183594 103.25 C 203.375 103.25 203.566406 103.289062 203.757812 103.328125 L 204.257812 102.175781 Z M 205.445312 102.175781" fill="#ad895f"></path><g clip-path="url(#fdf4604699)"><path fill-rule="nonzero" fill-opacity="1" d="M 263.675781 93.75 C 258.925781 91.410156 250.996094 86.546875 244.902344 77.3125 C 240.230469 70.265625 238.429688 63.328125 237.664062 58.578125 C 242.605469 61.71875 246.4375 64.902344 249.195312 67.429688 C 254.214844 72.066406 258.390625 75.972656 261.148438 82.636719 C 262.910156 86.851562 263.523438 90.761719 263.675781 93.785156 Z M 263.675781 93.75" fill="#ad895f"></path></g><path fill-rule="nonzero" fill-opacity="1" d="M 276.703125 119.761719 C 271.683594 118.074219 263.179688 114.28125 255.9375 105.894531 C 250.382812 99.496094 247.664062 92.867188 246.28125 88.269531 C 251.609375 90.761719 255.785156 93.367188 258.847656 95.550781 C 264.441406 99.496094 269.078125 102.828125 272.71875 109.035156 C 275.015625 112.980469 276.128906 116.773438 276.703125 119.722656 Z M 276.703125 119.761719" fill="#ad895f"></path><path fill-rule="nonzero" fill-opacity="1" d="M 284.863281 161.863281 C 280.953125 158.300781 274.671875 151.445312 271.339844 140.871094 C 268.808594 132.789062 268.964844 125.625 269.539062 120.835938 C 273.40625 125.238281 276.203125 129.339844 278.15625 132.519531 C 281.71875 138.378906 284.632812 143.285156 285.476562 150.449219 C 286.011719 154.96875 285.511719 158.914062 284.824219 161.863281 Z M 284.863281 161.863281" fill="#ad895f"></path><path fill-rule="nonzero" fill-opacity="1" d="M 289.230469 146.082031 C 288.847656 140.792969 289.039062 131.484375 293.902344 121.5625 C 297.621094 113.976562 302.675781 108.882812 306.394531 105.816406 C 306.164062 111.679688 305.398438 116.582031 304.59375 120.222656 C 303.136719 126.925781 301.871094 132.480469 297.542969 138.226562 C 294.824219 141.867188 291.757812 144.394531 289.230469 146.042969 Z M 289.230469 146.082031" fill="#ad895f"></path><path fill-rule="nonzero" fill-opacity="1" d="M 285.398438 173.855469 C 285.742188 168.570312 287.199219 159.375 293.40625 150.21875 C 298.15625 143.207031 303.824219 138.878906 307.964844 136.351562 C 306.929688 142.136719 305.472656 146.847656 304.171875 150.371094 C 301.832031 156.808594 299.804688 162.132812 294.707031 167.230469 C 291.488281 170.445312 288.117188 172.515625 285.398438 173.855469 Z M 285.398438 173.855469" fill="#ad895f"></path><path fill-rule="nonzero" fill-opacity="1" d="M 279.574219 192.972656 C 281.527344 188.796875 286.089844 180.636719 295.246094 173.972656 C 302.371094 168.800781 309.34375 166.691406 313.558594 165.734375 C 310.683594 170.828125 307.734375 174.8125 305.320312 177.726562 C 300.722656 183.28125 297.082031 187.6875 290.800781 190.484375 C 286.355469 192.476562 282.257812 192.898438 279.574219 192.972656 Z M 279.574219 192.972656" fill="#ad895f"></path><path fill-rule="nonzero" fill-opacity="1" d="M 269.191406 201.898438 C 267.238281 196.460938 264.710938 186.574219 266.972656 174.660156 C 268.695312 165.582031 272.527344 158.722656 275.550781 154.394531 C 277.046875 160.640625 277.621094 166.042969 277.851562 170.140625 C 278.273438 177.609375 278.578125 183.855469 275.667969 191.210938 C 273.867188 195.847656 271.339844 199.410156 269.191406 201.898438 Z M 269.191406 201.898438" fill="#ad895f"></path><path fill-rule="nonzero" fill-opacity="1" d="M 236.667969 234.234375 C 237.125 228.21875 239.003906 217.722656 246.246094 207.339844 C 251.800781 199.410156 258.390625 194.542969 263.101562 191.746094 C 261.835938 198.335938 260.074219 203.699219 258.542969 207.722656 C 255.746094 215.039062 253.332031 221.09375 247.433594 226.839844 C 243.714844 230.480469 239.808594 232.777344 236.667969 234.234375 Z M 236.667969 234.234375" fill="#ad895f"></path><path fill-rule="nonzero" fill-opacity="1" d="M 194.792969 250.898438 C 195.175781 248.867188 195.90625 245.957031 197.511719 242.816406 C 201.304688 235.34375 207.246094 231.515625 213.414062 227.683594 C 217.933594 224.847656 225.019531 221.171875 234.558594 218.757812 C 231.839844 224.964844 228.546875 229.292969 226.171875 231.9375 C 220.5 238.257812 214.523438 241.550781 208.660156 244.730469 C 203.105469 247.757812 198.242188 249.710938 194.753906 250.898438 Z M 194.792969 250.898438" fill="#ad895f"></path><path fill-rule="nonzero" fill-opacity="1" d="M 218.355469 244.117188 C 220.269531 245.652344 223.183594 247.679688 227.050781 249.289062 C 234.523438 252.394531 241.035156 252.050781 247.507812 251.664062 C 252.566406 251.359375 259.921875 250.363281 268.425781 247.261719 C 262.527344 243.429688 257.164062 241.742188 253.675781 240.902344 C 245.285156 238.910156 238.46875 239.789062 233.140625 240.480469 C 226.898438 241.320312 221.839844 242.855469 218.394531 244.117188 Z M 218.355469 244.117188" fill="#ad895f"></path><path fill-rule="nonzero" fill-opacity="1" d="M 194.792969 251.511719 C 196.132812 253.199219 198.203125 255.457031 201.191406 257.566406 C 208.125 262.394531 215.25 262.890625 222.53125 263.3125 C 227.777344 263.617188 235.632812 263.464844 244.941406 261.011719 C 240.113281 257.066406 235.480469 254.769531 231.953125 253.429688 C 223.410156 250.09375 216.015625 250.09375 209.925781 250.132812 C 203.910156 250.132812 198.777344 250.824219 194.792969 251.550781 Z M 194.792969 251.511719" fill="#ad895f"></path><path fill-rule="nonzero" fill-opacity="1" d="M 193.683594 258.253906 C 193.875 259.441406 194.257812 261.089844 194.984375 263.003906 C 196.59375 267.027344 198.855469 269.367188 202.609375 273.15625 C 206.132812 276.722656 208.585938 278.445312 211.34375 279.019531 C 213.335938 279.441406 213.988281 278.941406 214.253906 278.675781 C 215.058594 277.792969 214.5625 276.109375 214.410156 275.648438 C 213.605469 273.003906 211.421875 271.933594 205.941406 268.292969 C 201.113281 265.074219 199.199219 263.503906 198.664062 263.042969 C 196.402344 261.167969 194.714844 259.40625 193.644531 258.253906 Z M 193.683594 258.253906" fill="#ad895f"></path><path fill-rule="nonzero" fill-opacity="1" d="M 256.742188 221.515625 C 259.691406 216.726562 266.28125 207.53125 278.195312 200.941406 C 286.472656 196.34375 294.210938 194.734375 299.230469 194.121094 C 295.398438 200.136719 291.414062 204.46875 288.425781 207.339844 C 283.941406 211.632812 278.503906 216.839844 269.804688 219.636719 C 264.519531 221.324219 259.882812 221.589844 256.78125 221.515625 Z M 256.742188 221.515625" fill="#ad895f"></path><path fill-rule="nonzero" fill-opacity="1" d="M 243.871094 233.046875 C 248.429688 229.789062 258.082031 223.890625 271.644531 222.433594 C 281.070312 221.4375 288.808594 222.972656 293.671875 224.3125 C 287.8125 228.371094 282.449219 230.785156 278.539062 232.28125 C 272.71875 234.503906 265.707031 237.183594 256.589844 236.378906 C 251.070312 235.882812 246.703125 234.3125 243.832031 233.007812 Z M 243.871094 233.046875" fill="#ad895f"></path><path fill-rule="nonzero" fill-opacity="1" d="M 277.46875 94.285156 C 277.046875 98.804688 275.707031 102.558594 274.441406 105.28125 C 271.339844 100.988281 266.664062 92.945312 265.628906 81.910156 C 264.863281 73.480469 266.511719 66.546875 268.082031 61.988281 C 270.957031 67.121094 272.832031 71.679688 274.058594 75.246094 C 276.320312 81.71875 278.121094 87.121094 277.429688 94.324219 Z M 277.46875 94.285156" fill="#ad895f"></path><path fill-rule="nonzero" fill-opacity="1" d="M 290.226562 117.003906 C 289.078125 121.410156 287.199219 124.894531 285.511719 127.421875 C 283.136719 122.710938 279.765625 114.015625 280.496094 102.941406 C 281.03125 94.515625 283.789062 87.886719 286.050781 83.632812 C 288.082031 89.152344 289.191406 93.941406 289.84375 97.65625 C 291.070312 104.398438 291.988281 110.03125 290.1875 117.003906 Z M 290.226562 117.003906" fill="#ad895f"></path><g clip-path="url(#595b4a8668)"><path fill-rule="nonzero" fill-opacity="1" d="M 111.121094 93.75 C 115.875 91.410156 123.804688 86.546875 129.894531 77.3125 C 134.570312 70.265625 136.371094 63.328125 137.136719 58.578125 C 132.195312 61.71875 128.363281 64.902344 125.605469 67.429688 C 120.585938 72.066406 116.410156 75.972656 113.652344 82.636719 C 111.890625 86.851562 111.277344 90.761719 111.121094 93.785156 Z M 111.121094 93.75" fill="#ad895f"></path></g><path fill-rule="nonzero" fill-opacity="1" d="M 98.097656 119.761719 C 103.117188 118.074219 111.621094 114.28125 118.859375 105.894531 C 124.417969 99.496094 127.136719 92.867188 128.515625 88.269531 C 123.191406 90.761719 119.015625 93.367188 115.949219 95.550781 C 110.355469 99.496094 105.71875 102.828125 102.082031 109.035156 C 99.78125 112.980469 98.671875 116.773438 98.097656 119.722656 Z M 98.097656 119.761719" fill="#ad895f"></path><path fill-rule="nonzero" fill-opacity="1" d="M 89.9375 161.863281 C 93.84375 158.300781 100.128906 151.445312 103.460938 140.871094 C 105.988281 132.789062 105.835938 125.625 105.261719 120.835938 C 101.390625 125.238281 98.59375 129.339844 96.640625 132.519531 C 93.078125 138.378906 90.167969 143.285156 89.324219 150.449219 C 88.789062 154.96875 89.285156 158.914062 89.976562 161.863281 Z M 89.9375 161.863281" fill="#ad895f"></path><path fill-rule="nonzero" fill-opacity="1" d="M 85.609375 146.082031 C 85.992188 140.792969 85.800781 131.484375 80.933594 121.5625 C 77.21875 113.976562 72.160156 108.882812 68.445312 105.816406 C 68.675781 111.679688 69.441406 116.582031 70.246094 120.222656 C 71.699219 126.925781 72.964844 132.480469 77.292969 138.226562 C 80.015625 141.867188 83.078125 144.394531 85.609375 146.042969 Z M 85.609375 146.082031" fill="#ad895f"></path><path fill-rule="nonzero" fill-opacity="1" d="M 89.398438 173.855469 C 89.054688 168.570312 87.601562 159.375 81.394531 150.21875 C 76.644531 143.207031 70.972656 138.878906 66.835938 136.351562 C 67.871094 142.136719 69.324219 146.847656 70.628906 150.371094 C 72.964844 156.808594 74.996094 162.132812 80.089844 167.230469 C 83.308594 170.445312 86.679688 172.515625 89.398438 173.855469 Z M 89.398438 173.855469" fill="#ad895f"></path><path fill-rule="nonzero" fill-opacity="1" d="M 95.261719 192.972656 C 93.308594 188.796875 88.75 180.636719 79.59375 173.972656 C 72.46875 168.800781 65.496094 166.691406 61.28125 165.734375 C 64.152344 170.828125 67.101562 174.8125 69.515625 177.726562 C 74.113281 183.28125 77.753906 187.6875 84.035156 190.484375 C 88.480469 192.476562 92.582031 192.898438 95.261719 192.972656 Z M 95.261719 192.972656" fill="#ad895f"></path><path fill-rule="nonzero" fill-opacity="1" d="M 105.605469 201.898438 C 107.558594 196.460938 110.089844 186.574219 107.828125 174.660156 C 106.105469 165.582031 102.273438 158.722656 99.246094 154.394531 C 97.753906 160.640625 97.175781 166.042969 96.949219 170.140625 C 96.527344 177.609375 96.21875 183.855469 99.132812 191.210938 C 100.933594 195.847656 103.460938 199.410156 105.605469 201.898438 Z M 105.605469 201.898438" fill="#ad895f"></path><path fill-rule="nonzero" fill-opacity="1" d="M 138.171875 234.234375 C 137.710938 228.21875 135.832031 217.722656 128.59375 207.339844 C 123.039062 199.410156 116.449219 194.542969 111.734375 191.746094 C 113 198.335938 114.761719 203.699219 116.292969 207.722656 C 119.089844 215.039062 121.503906 221.09375 127.40625 226.839844 C 131.121094 230.480469 135.027344 232.777344 138.171875 234.234375 Z M 138.171875 234.234375" fill="#ad895f"></path><path fill-rule="nonzero" fill-opacity="1" d="M 180.042969 250.898438 C 179.660156 248.867188 178.933594 245.957031 177.324219 242.816406 C 173.53125 235.34375 167.59375 231.515625 161.425781 227.683594 C 156.902344 224.847656 149.816406 221.171875 140.277344 218.757812 C 142.996094 224.964844 146.292969 229.292969 148.667969 231.9375 C 154.335938 238.257812 160.3125 241.550781 166.175781 244.730469 C 171.730469 247.757812 176.597656 249.710938 180.082031 250.898438 Z M 180.042969 250.898438" fill="#ad895f"></path><path fill-rule="nonzero" fill-opacity="1" d="M 156.445312 244.117188 C 154.527344 245.652344 151.617188 247.679688 147.746094 249.289062 C 140.277344 252.394531 133.765625 252.050781 127.289062 251.664062 C 122.234375 251.359375 114.878906 250.363281 106.371094 247.261719 C 112.273438 243.429688 117.636719 241.742188 121.121094 240.902344 C 129.511719 238.910156 136.332031 239.789062 141.65625 240.480469 C 147.902344 241.320312 152.957031 242.855469 156.40625 244.117188 Z M 156.445312 244.117188" fill="#ad895f"></path><path fill-rule="nonzero" fill-opacity="1" d="M 180.042969 251.511719 C 178.703125 253.199219 176.632812 255.457031 173.644531 257.566406 C 166.710938 262.394531 159.585938 262.890625 152.308594 263.3125 C 147.058594 263.617188 139.203125 263.464844 129.894531 261.011719 C 134.722656 257.066406 139.359375 254.769531 142.882812 253.429688 C 151.425781 250.09375 158.820312 250.09375 164.910156 250.132812 C 170.925781 250.132812 176.058594 250.824219 180.042969 251.550781 Z M 180.042969 251.511719" fill="#ad895f"></path><path fill-rule="nonzero" fill-opacity="1" d="M 181.15625 258.253906 C 180.964844 259.441406 180.578125 261.089844 179.851562 263.003906 C 178.242188 267.027344 175.984375 269.367188 172.226562 273.15625 C 168.703125 276.722656 166.25 278.445312 163.492188 279.019531 C 161.5 279.441406 160.851562 278.941406 160.582031 278.675781 C 159.777344 277.792969 160.273438 276.109375 160.429688 275.648438 C 161.234375 273.003906 163.417969 271.933594 168.894531 268.292969 C 173.722656 265.074219 175.636719 263.503906 176.175781 263.042969 C 178.433594 261.167969 180.121094 259.40625 181.191406 258.253906 Z M 181.15625 258.253906" fill="#ad895f"></path><path fill-rule="nonzero" fill-opacity="1" d="M 118.058594 221.515625 C 115.105469 216.726562 108.515625 207.53125 96.601562 200.941406 C 88.328125 196.34375 80.589844 194.734375 75.570312 194.121094 C 79.402344 200.136719 83.386719 204.46875 86.375 207.339844 C 90.855469 211.632812 96.296875 216.839844 104.992188 219.636719 C 110.28125 221.324219 114.914062 221.589844 118.019531 221.515625 Z M 118.058594 221.515625" fill="#ad895f"></path><path fill-rule="nonzero" fill-opacity="1" d="M 130.929688 233.046875 C 126.371094 229.789062 116.714844 223.890625 103.152344 222.433594 C 93.730469 221.4375 85.992188 222.972656 81.125 224.3125 C 86.988281 228.371094 92.351562 230.785156 96.257812 232.28125 C 102.082031 234.503906 109.09375 237.183594 118.210938 236.378906 C 123.726562 235.882812 128.09375 234.3125 130.96875 233.007812 Z M 130.929688 233.046875" fill="#ad895f"></path><path fill-rule="nonzero" fill-opacity="1" d="M 97.332031 94.285156 C 97.753906 98.804688 99.09375 102.558594 100.355469 105.28125 C 103.460938 100.988281 108.132812 92.945312 109.167969 81.910156 C 109.933594 73.480469 108.289062 66.546875 106.714844 61.988281 C 103.84375 67.121094 101.964844 71.679688 100.742188 75.246094 C 98.480469 81.71875 96.679688 87.121094 97.367188 94.324219 Z M 97.332031 94.285156" fill="#ad895f"></path><path fill-rule="nonzero" fill-opacity="1" d="M 84.613281 117.003906 C 85.761719 121.410156 87.636719 124.894531 89.324219 127.421875 C 91.699219 122.710938 95.070312 114.015625 94.34375 102.941406 C 93.804688 94.515625 91.046875 87.886719 88.789062 83.632812 C 86.757812 89.152344 85.644531 93.941406 84.996094 97.65625 C 83.769531 104.398438 82.847656 110.03125 84.648438 117.003906 Z M 84.613281 117.003906" fill="#ad895f"></path><path fill-rule="nonzero" fill-opacity="1" d="M 146.714844 164.050781 C 142.613281 159.488281 140.890625 157.304688 140.890625 157.304688 C 136.945312 152.289062 136.214844 150.371094 134.070312 149.914062 C 131.390625 149.300781 129.167969 151.519531 125.414062 154.507812 C 123.839844 155.734375 121.964844 157.152344 119.742188 158.683594 C 130.203125 168.722656 140.621094 178.761719 151.082031 188.796875 C 151.695312 188.144531 152.382812 187.417969 153.226562 186.574219 C 153.914062 185.886719 154.453125 185.3125 154.835938 184.929688 C 154.71875 184.390625 154.644531 183.742188 154.757812 183.011719 C 154.875 182.054688 155.292969 180.445312 157.707031 178.148438 C 158.511719 177.382812 159.355469 176.691406 160.199219 176.117188 C 153.722656 170.523438 151.273438 169.105469 146.75 164.125 Z M 134.875 154.242188 C 134.605469 154.96875 133.839844 155.351562 133.074219 155.085938 C 132.347656 154.816406 131.964844 154.050781 132.230469 153.285156 C 132.5 152.554688 133.265625 152.171875 133.992188 152.441406 C 134.722656 152.707031 135.105469 153.476562 134.835938 154.203125 Z M 134.875 154.242188" fill="#ad895f"></path><path fill-rule="nonzero" fill-opacity="1" d="M 170.351562 185.386719 C 166.558594 181.824219 164.679688 180.023438 163.378906 178.875 C 162.496094 178.070312 161.65625 177.34375 160.886719 176.652344 C 160.199219 177.152344 159.472656 177.726562 158.820312 178.378906 C 156.40625 180.714844 155.945312 182.324219 155.871094 183.28125 C 155.871094 183.511719 155.871094 183.742188 155.871094 183.96875 C 156.214844 183.664062 156.40625 183.585938 156.636719 183.550781 C 158.589844 183.320312 159.585938 185.542969 164.296875 190.253906 C 166.289062 192.285156 167.785156 193.777344 170.042969 195.695312 C 172.496094 197.761719 174.410156 199.101562 175.371094 201.824219 C 175.523438 202.246094 175.828125 203.085938 175.90625 204.160156 C 176.789062 204.3125 177.859375 204.273438 179.046875 203.96875 C 180.886719 203.433594 181.996094 202.359375 182.765625 201.632812 C 183.605469 200.789062 184.257812 199.871094 184.71875 199.027344 C 179.007812 193.511719 174.144531 188.914062 170.425781 185.386719 Z M 162.613281 182.015625 C 162.34375 182.746094 161.578125 183.128906 160.851562 182.859375 C 160.121094 182.589844 159.738281 181.824219 160.007812 181.097656 C 160.273438 180.371094 161.078125 179.984375 161.808594 180.253906 C 162.535156 180.523438 162.917969 181.289062 162.652344 182.054688 Z M 180.808594 199.257812 C 180.542969 199.984375 179.738281 200.367188 179.007812 200.097656 C 178.28125 199.832031 177.898438 199.066406 178.167969 198.296875 C 178.433594 197.570312 179.238281 197.1875 179.96875 197.457031 C 180.695312 197.722656 181.078125 198.492188 180.808594 199.21875 Z M 180.808594 199.257812" fill="#ad895f"></path><path fill-rule="nonzero" fill-opacity="1" d="M 150.121094 189.753906 C 149.242188 190.714844 148.550781 191.441406 148.015625 192.015625 C 137.058594 182.972656 129.089844 175.773438 125.144531 171.789062 C 120.085938 166.730469 117.710938 164.085938 117.710938 164.085938 C 116.90625 163.207031 116.101562 162.285156 115.375 161.445312 C 116.523438 160.753906 117.597656 160.066406 118.59375 159.375 C 129.128906 169.488281 139.625 179.601562 150.121094 189.71875 Z M 150.121094 189.753906" fill="#ad895f"></path><path fill-rule="nonzero" fill-opacity="1" d="M 228.085938 164.050781 C 232.183594 159.488281 233.910156 157.304688 233.910156 157.304688 C 237.855469 152.289062 238.582031 150.371094 240.726562 149.914062 C 243.410156 149.300781 245.632812 151.519531 249.386719 154.507812 C 250.957031 155.734375 252.835938 157.152344 255.054688 158.683594 C 244.597656 168.722656 234.175781 178.761719 223.71875 188.796875 C 223.105469 188.144531 222.414062 187.417969 221.574219 186.574219 C 220.882812 185.886719 220.347656 185.3125 219.964844 184.929688 C 220.078125 184.390625 220.15625 183.742188 220.039062 183.011719 C 219.925781 182.054688 219.503906 180.445312 217.089844 178.148438 C 216.285156 177.382812 215.441406 176.691406 214.601562 176.117188 C 221.074219 170.523438 223.527344 169.105469 228.046875 164.125 Z M 239.960938 154.242188 C 240.230469 154.96875 240.996094 155.351562 241.761719 155.085938 C 242.492188 154.816406 242.875 154.050781 242.605469 153.285156 C 242.335938 152.554688 241.570312 152.171875 240.84375 152.441406 C 240.113281 152.707031 239.730469 153.476562 240 154.203125 Z M 239.960938 154.242188" fill="#ad895f"></path><path fill-rule="nonzero" fill-opacity="1" d="M 204.484375 185.386719 C 208.277344 181.824219 210.15625 180.023438 211.457031 178.875 C 212.339844 178.070312 213.183594 177.34375 213.949219 176.652344 C 214.636719 177.152344 215.367188 177.726562 216.019531 178.378906 C 218.429688 180.714844 218.890625 182.324219 218.96875 183.28125 C 218.96875 183.511719 218.96875 183.742188 218.96875 183.96875 C 218.621094 183.664062 218.429688 183.585938 218.203125 183.550781 C 216.246094 183.320312 215.25 185.542969 210.539062 190.253906 C 208.546875 192.285156 207.054688 193.777344 204.792969 195.695312 C 202.339844 197.761719 200.425781 199.101562 199.46875 201.824219 C 199.3125 202.246094 199.007812 203.085938 198.929688 204.160156 C 198.050781 204.3125 196.976562 204.273438 195.789062 203.96875 C 193.949219 203.433594 192.839844 202.359375 192.074219 201.632812 C 191.230469 200.789062 190.578125 199.871094 190.121094 199.027344 C 195.828125 193.511719 200.691406 188.914062 204.410156 185.386719 Z M 212.1875 182.015625 C 212.453125 182.746094 213.222656 183.128906 213.949219 182.859375 C 214.675781 182.589844 215.058594 181.824219 214.792969 181.097656 C 214.523438 180.371094 213.71875 179.984375 212.992188 180.253906 C 212.261719 180.523438 211.878906 181.289062 212.148438 182.054688 Z M 194.027344 199.257812 C 194.296875 199.984375 195.101562 200.367188 195.828125 200.097656 C 196.554688 199.832031 196.9375 199.066406 196.671875 198.296875 C 196.402344 197.570312 195.597656 197.1875 194.871094 197.457031 C 194.140625 197.722656 193.757812 198.492188 194.027344 199.21875 Z M 194.027344 199.257812" fill="#ad895f"></path><path fill-rule="nonzero" fill-opacity="1" d="M 224.714844 189.753906 C 225.59375 190.714844 226.285156 191.441406 226.820312 192.015625 C 237.777344 182.972656 245.746094 175.773438 249.691406 171.789062 C 254.75 166.730469 257.125 164.085938 257.125 164.085938 C 257.929688 163.207031 258.734375 162.285156 259.460938 161.445312 C 258.3125 160.753906 257.238281 160.066406 256.242188 159.375 C 245.707031 169.488281 235.210938 179.601562 224.714844 189.71875 Z M 224.714844 189.753906" fill="#ad895f"></path><path fill-rule="nonzero" fill-opacity="1" d="M 175.867188 158.417969 C 173.148438 159.605469 169.96875 159.488281 166.558594 159.488281 C 164.71875 159.488281 162.957031 159.375 161.117188 159.375 C 158.207031 159.375 156.980469 159.488281 156.980469 159.488281 L 157.480469 158.570312 C 158.511719 156.578125 158.820312 156.15625 158.820312 140.027344 C 158.820312 123.898438 158.589844 124.167969 157.480469 122.023438 L 156.980469 121.101562 C 156.980469 121.101562 159.011719 121.21875 160.503906 121.21875 C 162 121.21875 164.949219 121.101562 166.519531 121.101562 C 168.089844 121.101562 171.230469 121.101562 173.835938 121.792969 C 177.976562 122.863281 180.503906 125.546875 180.503906 130.488281 C 180.503906 136.734375 176.328125 138.957031 173.644531 139.453125 C 175.253906 139.492188 181.882812 140.488281 181.882812 148.761719 C 181.882812 154.472656 178.664062 157.191406 175.867188 158.378906 Z M 167.019531 140.179688 C 169.394531 139.644531 175.484375 138.1875 175.484375 131.101562 C 175.484375 124.820312 171.652344 124.015625 166.40625 124.015625 C 164.949219 124.015625 163.378906 124.128906 163.378906 124.128906 L 163.378906 156.464844 C 163.378906 156.464844 164.144531 156.578125 167.09375 156.578125 C 170.042969 156.578125 171.921875 156.273438 172.839844 155.773438 C 174.144531 155.121094 176.824219 153.933594 176.824219 148.53125 C 176.824219 141.980469 171.921875 140.640625 166.980469 140.21875 Z M 167.019531 140.179688" fill="#ad895f"></path><path fill-rule="nonzero" fill-opacity="1" d="M 204.714844 159.757812 C 197.898438 159.757812 188.050781 156.386719 188.050781 141.023438 C 188.050781 127.921875 195.136719 120.835938 207.320312 120.835938 C 214.027344 120.835938 216.707031 122.40625 216.707031 122.40625 C 216.707031 122.40625 216.59375 123.632812 216.59375 125.699219 C 216.59375 127.769531 216.707031 129.300781 216.707031 129.300781 C 214.410156 125.96875 212.53125 124.050781 207.246094 124.050781 C 201.957031 124.050781 193.070312 125.625 193.070312 140.601562 C 193.070312 149.988281 196.707031 156.617188 204.832031 156.617188 C 208.050781 156.617188 213.871094 156.195312 213.871094 148.878906 C 213.871094 144.894531 212.148438 142.363281 207.628906 142.363281 C 204.675781 142.363281 203.183594 143.78125 203.183594 143.78125 C 203.183594 140.679688 206.554688 139.109375 210.347656 139.109375 C 216.054688 139.109375 218.890625 142.671875 218.890625 148.148438 C 218.890625 156.960938 212.53125 159.875 204.714844 159.875 Z M 204.714844 159.757812" fill="#ad895f"></path><g clip-path="url(#3a4efaddab)"><path fill-rule="nonzero" fill-opacity="1" d="M 66.644531 315.644531 C 65.457031 316.144531 64.078125 316.105469 62.621094 316.105469 C 61.816406 316.105469 61.050781 316.066406 60.285156 316.066406 C 59.019531 316.066406 58.484375 316.105469 58.484375 316.105469 L 58.675781 315.722656 C 59.132812 314.878906 59.25 314.6875 59.25 307.714844 C 59.25 300.742188 59.171875 300.855469 58.675781 299.9375 L 58.484375 299.554688 C 58.484375 299.554688 59.363281 299.59375 60.015625 299.59375 C 60.667969 299.59375 61.929688 299.554688 62.621094 299.554688 C 63.3125 299.554688 64.652344 299.554688 65.761719 299.859375 C 67.5625 300.320312 68.636719 301.46875 68.636719 303.617188 C 68.636719 306.296875 66.835938 307.292969 65.648438 307.484375 C 66.335938 307.484375 69.210938 307.90625 69.210938 311.507812 C 69.210938 313.960938 67.832031 315.148438 66.605469 315.644531 Z M 62.8125 307.792969 C 63.847656 307.5625 66.492188 306.949219 66.492188 303.882812 C 66.492188 301.164062 64.84375 300.820312 62.582031 300.820312 C 61.96875 300.820312 61.28125 300.855469 61.28125 300.855469 L 61.28125 314.839844 C 61.28125 314.839844 61.585938 314.878906 62.890625 314.878906 C 64.191406 314.878906 64.996094 314.726562 65.378906 314.535156 C 65.953125 314.265625 67.101562 313.730469 67.101562 311.390625 C 67.101562 308.558594 64.996094 307.984375 62.851562 307.792969 Z M 62.8125 307.792969" fill="#ad895f"></path></g><g clip-path="url(#8f41c81cc6)"><path fill-rule="nonzero" fill-opacity="1" d="M 79.515625 316.449219 C 74.382812 315.953125 72.238281 312.082031 72.238281 307.867188 C 72.238281 303.460938 74.996094 299.667969 79.746094 299.246094 C 84.878906 299.746094 87.023438 303.617188 87.023438 307.828125 C 87.023438 312.234375 84.265625 316.027344 79.515625 316.449219 Z M 79.707031 300.664062 C 77.371094 301.046875 74.421875 302.734375 74.421875 307.867188 C 74.421875 313 77.179688 314.6875 79.515625 315.070312 C 81.851562 314.6875 84.804688 313 84.804688 307.867188 C 84.804688 302.734375 82.042969 301.046875 79.707031 300.664062 Z M 79.707031 300.664062" fill="#ad895f"></path></g><g clip-path="url(#4f5a39f445)"><path fill-rule="nonzero" fill-opacity="1" d="M 103.421875 299.898438 C 102.960938 300.742188 102.847656 300.933594 102.847656 307.90625 C 102.847656 313.421875 103.117188 314.265625 103.382812 314.765625 C 103.382812 314.765625 101.160156 316.335938 97.445312 316.335938 C 91.429688 316.335938 91.046875 312.964844 91.046875 308.402344 C 91.046875 305.339844 91.238281 303.308594 91.238281 301.851562 C 91.238281 301.011719 91.164062 300.28125 90.394531 299.859375 C 90.394531 299.859375 90.972656 299.554688 91.738281 299.554688 C 93.308594 299.554688 93.460938 300.320312 93.460938 301.316406 C 93.460938 302.042969 93.15625 305.800781 93.15625 307.828125 C 93.15625 311.890625 93.382812 314.957031 97.597656 314.957031 C 100.089844 314.957031 100.933594 314.417969 100.933594 314.417969 L 100.933594 307.371094 C 100.933594 300.972656 100.855469 300.820312 100.355469 299.898438 L 100.164062 299.515625 C 100.164062 299.515625 100.664062 299.554688 101.929688 299.554688 C 103.191406 299.554688 103.730469 299.515625 103.730469 299.515625 L 103.535156 299.898438 Z M 103.421875 299.898438" fill="#ad895f"></path></g><g clip-path="url(#00532aa96c)"><path fill-rule="nonzero" fill-opacity="1" d="M 115.222656 316.257812 C 107.445312 316.257812 107.0625 310.359375 107.0625 308.019531 C 107.0625 302.582031 110.125 299.402344 115.375 299.402344 C 118.285156 299.402344 119.4375 300.089844 119.4375 300.089844 C 119.4375 300.089844 119.398438 300.628906 119.398438 301.507812 C 119.398438 302.390625 119.4375 303.078125 119.4375 303.078125 C 118.441406 301.625 117.636719 300.820312 115.335938 300.820312 C 113.039062 300.820312 109.207031 301.507812 109.207031 307.984375 C 109.207031 311.660156 110.355469 314.957031 115.261719 314.957031 C 117.597656 314.957031 118.441406 314.074219 119.4375 312.617188 C 119.4375 312.617188 119.398438 313.382812 119.398438 314.304688 C 119.398438 315.109375 119.4375 315.644531 119.4375 315.644531 C 119.4375 315.644531 117.828125 316.296875 115.222656 316.296875 Z M 115.222656 316.257812" fill="#ad895f"></path></g><g clip-path="url(#6724563bb5)"><path fill-rule="nonzero" fill-opacity="1" d="M 136.140625 316.105469 C 136.140625 316.105469 135.640625 316.066406 134.378906 316.066406 C 133.113281 316.066406 132.578125 316.105469 132.578125 316.105469 L 132.769531 315.722656 C 133.226562 314.878906 133.34375 314.609375 133.34375 308.328125 L 125.296875 308.328125 C 125.296875 314.648438 125.375 314.839844 125.871094 315.722656 L 126.0625 316.105469 C 126.0625 316.105469 125.566406 316.066406 124.300781 316.066406 C 123.039062 316.066406 122.5 316.105469 122.5 316.105469 L 122.691406 315.722656 C 123.152344 314.839844 123.265625 314.6875 123.265625 307.714844 C 123.265625 300.742188 123.191406 300.855469 122.691406 299.9375 L 122.5 299.554688 C 122.5 299.554688 123 299.59375 124.261719 299.59375 C 125.527344 299.59375 126.0625 299.554688 126.0625 299.554688 L 125.871094 299.9375 C 125.414062 300.78125 125.296875 301.011719 125.296875 306.796875 L 133.34375 306.796875 C 133.34375 301.046875 133.226562 300.820312 132.769531 299.9375 L 132.578125 299.554688 C 132.578125 299.554688 133.074219 299.59375 134.339844 299.59375 C 135.601562 299.59375 136.140625 299.554688 136.140625 299.554688 L 135.949219 299.9375 C 135.488281 300.820312 135.375 300.972656 135.375 307.945312 C 135.375 314.917969 135.449219 314.800781 135.949219 315.722656 Z M 136.140625 316.105469" fill="#ad895f"></path></g><g clip-path="url(#196eaaad3f)"><path fill-rule="nonzero" fill-opacity="1" d="M 149.585938 315.453125 L 149.585938 315.914062 C 149.585938 315.914062 148.476562 316.179688 145.945312 316.179688 C 143.417969 316.179688 142.382812 315.953125 141.542969 315.222656 C 140.621094 314.378906 140.507812 313.347656 140.507812 311.355469 L 140.507812 304.6875 C 140.507812 302.734375 140.621094 301.546875 141.578125 300.664062 C 142.421875 299.9375 143.417969 299.554688 145.984375 299.554688 C 148.128906 299.554688 149.511719 299.707031 149.511719 299.707031 C 149.511719 299.707031 149.511719 300.050781 149.511719 300.820312 C 149.511719 301.699219 149.585938 302.121094 149.585938 302.160156 C 149.585938 302.160156 149.394531 301.890625 148.742188 301.507812 C 148.246094 301.238281 147.363281 300.894531 145.871094 300.894531 C 144.914062 300.894531 143.570312 300.933594 142.996094 301.890625 C 142.652344 302.464844 142.539062 302.925781 142.539062 304.765625 L 142.539062 307.179688 L 145.5625 307.179688 C 146.675781 307.179688 147.554688 307.0625 148.128906 306.71875 C 148.742188 306.375 148.933594 306.144531 148.972656 306.105469 C 148.972656 306.105469 148.898438 306.796875 148.898438 307.828125 C 148.898438 308.863281 148.972656 309.476562 148.972656 309.515625 C 148.972656 309.515625 148.78125 309.285156 148.128906 308.902344 C 147.554688 308.59375 146.675781 308.441406 145.5625 308.441406 L 142.539062 308.441406 L 142.539062 311.007812 C 142.539062 312.847656 142.613281 313.347656 142.957031 313.882812 C 143.535156 314.839844 144.949219 314.800781 145.832031 314.800781 C 148.285156 314.800781 149.050781 313.882812 149.894531 312.65625 C 149.894531 312.65625 149.738281 313.652344 149.625 315.453125 Z M 149.585938 315.453125" fill="#ad895f"></path></g><g clip-path="url(#34b234536c)"><path fill-rule="nonzero" fill-opacity="1" d="M 164.605469 316.105469 C 164.605469 316.105469 163.992188 316.066406 163.035156 316.066406 C 161.960938 316.066406 161.5 316.105469 161.5 316.105469 C 161.5 316.105469 161.730469 315.914062 161.730469 315.414062 C 161.730469 312.386719 159.664062 308.402344 157.09375 307.792969 C 159.242188 307.636719 161.308594 306.871094 161.308594 303.921875 C 161.308594 301.125 159.546875 300.78125 157.363281 300.78125 C 156.75 300.78125 156.136719 300.820312 156.136719 300.820312 L 156.136719 308.480469 C 156.136719 314.34375 156.214844 314.765625 156.710938 315.683594 L 156.902344 316.066406 C 156.902344 316.066406 156.40625 316.027344 155.179688 316.027344 C 153.953125 316.027344 153.378906 316.066406 153.378906 316.066406 L 153.570312 315.683594 C 154.03125 314.839844 154.144531 314.648438 154.144531 307.675781 C 154.144531 300.703125 154.070312 300.820312 153.570312 299.898438 L 153.378906 299.515625 C 153.378906 299.515625 153.992188 299.554688 154.910156 299.554688 C 155.601562 299.554688 156.519531 299.515625 157.171875 299.515625 C 160.503906 299.515625 163.417969 299.976562 163.417969 303.730469 C 163.417969 304.765625 163.070312 307.40625 159.855469 307.984375 C 163.53125 309.363281 163.53125 315.070312 164.335938 315.914062 L 164.527344 316.105469 Z M 164.605469 316.105469" fill="#ad895f"></path></g><g clip-path="url(#190fd9ee0f)"><path fill-rule="nonzero" fill-opacity="1" d="M 171.003906 316.105469 C 171.003906 316.105469 170.503906 316.066406 169.238281 316.066406 C 167.976562 316.066406 167.4375 316.105469 167.4375 316.105469 L 167.632812 315.722656 C 168.089844 314.839844 168.207031 314.6875 168.207031 307.714844 C 168.207031 300.742188 168.128906 300.855469 167.632812 299.9375 L 167.4375 299.554688 C 167.4375 299.554688 167.9375 299.59375 169.203125 299.59375 C 170.464844 299.59375 171.003906 299.554688 171.003906 299.554688 L 170.8125 299.9375 C 170.351562 300.820312 170.234375 300.972656 170.234375 307.945312 C 170.234375 314.917969 170.3125 314.800781 170.8125 315.722656 Z M 171.003906 316.105469" fill="#ad895f"></path></g><g clip-path="url(#efbb228656)"><path fill-rule="nonzero" fill-opacity="1" d="M 184.449219 315.453125 L 184.449219 315.914062 C 184.449219 315.914062 183.339844 316.179688 180.808594 316.179688 C 178.28125 316.179688 177.246094 315.953125 176.402344 315.222656 C 175.484375 314.378906 175.371094 313.347656 175.371094 311.355469 L 175.371094 304.6875 C 175.371094 302.734375 175.484375 301.546875 176.441406 300.664062 C 177.285156 299.9375 178.28125 299.554688 180.847656 299.554688 C 182.992188 299.554688 184.371094 299.707031 184.371094 299.707031 C 184.371094 299.707031 184.371094 300.050781 184.371094 300.820312 C 184.371094 301.699219 184.449219 302.121094 184.449219 302.160156 C 184.449219 302.160156 184.257812 301.890625 183.605469 301.507812 C 183.109375 301.238281 182.226562 300.894531 180.734375 300.894531 C 179.777344 300.894531 178.433594 300.933594 177.859375 301.890625 C 177.515625 302.464844 177.398438 302.925781 177.398438 304.765625 L 177.398438 307.179688 L 180.425781 307.179688 C 181.539062 307.179688 182.417969 307.0625 182.992188 306.71875 C 183.605469 306.375 183.796875 306.144531 183.835938 306.105469 C 183.835938 306.105469 183.761719 306.796875 183.761719 307.828125 C 183.761719 308.863281 183.835938 309.476562 183.835938 309.515625 C 183.835938 309.515625 183.644531 309.65625 182.992188 308.902344 C 182.417969 308.59375 181.539062 308.441406 180.425781 308.441406 L 177.398438 308.441406 L 177.398438 311.007812 C 177.398438 312.847656 177.476562 313.347656 177.820312 313.882812 C 178.394531 314.839844 179.8125 314.800781 180.695312 314.800781 C 183.148438 314.800781 183.914062 313.882812 184.757812 312.65625 C 184.757812 312.65625 184.601562 313.652344 184.488281 315.453125 Z M 184.449219 315.453125" fill="#ad895f"></path></g><g clip-path="url(#ddaffbd90c)"><path fill-rule="nonzero" fill-opacity="1" d="M 198.472656 316.144531 C 197.476562 316.144531 196.746094 316.066406 195.789062 316.066406 C 194.523438 316.066406 193.914062 316.105469 193.914062 316.105469 L 194.105469 315.722656 C 194.5625 314.878906 194.679688 314.6875 194.679688 307.714844 C 194.679688 300.742188 194.601562 300.855469 194.105469 299.9375 L 193.914062 299.554688 C 193.914062 299.554688 194.523438 299.59375 195.789062 299.59375 C 196.707031 299.59375 197.859375 299.515625 198.855469 299.515625 C 200.960938 299.515625 207.472656 299.667969 207.472656 307.445312 C 207.472656 315.988281 201.269531 316.144531 198.472656 316.144531 Z M 198.433594 300.855469 C 197.476562 300.855469 196.746094 300.894531 196.746094 300.894531 L 196.746094 314.765625 C 196.746094 314.765625 197.589844 314.800781 198.355469 314.800781 C 201.34375 314.800781 205.289062 314.457031 205.289062 307.714844 C 205.289062 301.394531 201.652344 300.820312 198.433594 300.820312 Z M 198.433594 300.855469" fill="#ad895f"></path></g><g clip-path="url(#6d53a5997c)"><path fill-rule="nonzero" fill-opacity="1" d="M 220.460938 315.453125 L 220.460938 315.914062 C 220.460938 315.914062 219.351562 316.179688 216.820312 316.179688 C 214.292969 316.179688 213.257812 315.953125 212.417969 315.222656 C 211.496094 314.378906 211.382812 313.347656 211.382812 311.355469 L 211.382812 304.6875 C 211.382812 302.734375 211.496094 301.546875 212.453125 300.664062 C 213.296875 299.9375 214.292969 299.554688 216.859375 299.554688 C 219.003906 299.554688 220.386719 299.707031 220.386719 299.707031 C 220.386719 299.707031 220.386719 300.050781 220.386719 300.820312 C 220.386719 301.699219 220.460938 302.121094 220.460938 302.160156 C 220.460938 302.160156 220.269531 301.890625 219.617188 301.507812 C 219.121094 301.238281 218.238281 300.894531 216.746094 300.894531 C 215.789062 300.894531 214.445312 300.933594 213.871094 301.890625 C 213.527344 302.464844 213.414062 302.925781 213.414062 304.765625 L 213.414062 307.179688 L 216.4375 307.179688 C 217.550781 307.179688 218.429688 307.0625 219.003906 306.71875 C 219.617188 306.375 219.808594 306.144531 219.847656 306.105469 C 219.847656 306.105469 219.773438 306.796875 219.773438 307.828125 C 219.773438 308.863281 219.847656 309.476562 219.847656 309.515625 C 219.847656 309.515625 219.65625 309.285156 219.003906 308.902344 C 218.429688 308.59375 217.550781 308.441406 216.4375 308.441406 L 213.414062 308.441406 L 213.414062 311.007812 C 213.414062 312.847656 213.488281 313.347656 213.832031 313.882812 C 214.410156 314.839844 215.824219 314.800781 216.707031 314.800781 C 219.160156 314.800781 219.925781 313.882812 220.769531 312.65625 C 220.769531 312.65625 220.613281 313.652344 220.5 315.453125 Z M 220.460938 315.453125" fill="#ad895f"></path></g><g clip-path="url(#5a7f9c2900)"><path fill-rule="nonzero" fill-opacity="1" d="M 238.429688 315.453125 L 238.429688 316.105469 L 231.726562 316.105469 C 230.460938 316.105469 229.925781 316.105469 229.925781 316.105469 L 230.117188 315.722656 C 230.574219 314.839844 230.691406 314.6875 230.691406 307.714844 C 230.691406 300.742188 230.613281 300.855469 230.117188 299.9375 L 229.925781 299.554688 C 229.925781 299.554688 230.421875 299.59375 231.6875 299.59375 C 232.949219 299.59375 233.488281 299.554688 233.488281 299.554688 L 233.296875 299.9375 C 232.835938 300.820312 232.722656 300.972656 232.722656 307.945312 L 232.722656 314.765625 L 234.558594 314.765625 C 237.433594 314.765625 237.816406 314.113281 238.660156 312.847656 C 238.660156 312.847656 238.542969 313.652344 238.390625 315.453125 Z M 238.429688 315.453125" fill="#ad895f"></path></g><g clip-path="url(#16ecd94966)"><path fill-rule="nonzero" fill-opacity="1" d="M 253.984375 316.105469 C 253.984375 316.105469 253.21875 316.066406 251.953125 316.066406 C 250.726562 316.066406 249.921875 316.105469 249.921875 316.105469 C 250.230469 315.914062 250.652344 315.492188 250.652344 314.648438 C 250.652344 313.84375 250.230469 312.386719 249.691406 310.664062 L 249.234375 309.171875 L 243.714844 309.171875 C 243.140625 311.238281 242.757812 313.191406 242.757812 314.457031 C 242.757812 315.605469 243.066406 315.953125 243.371094 316.144531 C 243.371094 316.144531 242.644531 316.105469 241.339844 316.105469 C 240.230469 316.105469 239.578125 316.144531 239.578125 316.144531 C 239.886719 315.875 240.152344 315.566406 240.421875 314.839844 C 240.882812 313.730469 242.644531 305.1875 245.863281 299.554688 C 245.863281 299.554688 246.167969 299.59375 247.085938 299.59375 C 248.007812 299.59375 248.390625 299.554688 248.390625 299.554688 L 251.722656 310.664062 C 252.679688 313.882812 253.0625 315.300781 253.945312 316.144531 C 253.945312 316.144531 253.140625 316.105469 251.953125 316.105469 Z M 247.085938 301.777344 C 246.894531 301.125 246.820312 300.664062 246.820312 300.664062 C 246.246094 301.585938 245.09375 304.574219 244.136719 307.714844 L 248.8125 307.714844 L 247.050781 301.777344 Z M 247.085938 301.777344" fill="#ad895f"></path></g><g clip-path="url(#1aff8471b7)"><path fill-rule="nonzero" fill-opacity="1" d="M 268.464844 316.21875 C 265.515625 316.21875 261.261719 314.765625 261.261719 308.136719 C 261.261719 302.464844 264.328125 299.402344 269.574219 299.402344 C 272.488281 299.402344 273.636719 300.089844 273.636719 300.089844 C 273.636719 300.089844 273.597656 300.628906 273.597656 301.507812 C 273.597656 302.390625 273.636719 303.078125 273.636719 303.078125 C 272.640625 301.625 271.835938 300.820312 269.539062 300.820312 C 267.238281 300.820312 263.40625 301.507812 263.40625 307.984375 C 263.40625 312.042969 264.980469 314.917969 268.503906 314.917969 C 269.882812 314.917969 272.410156 314.726562 272.410156 311.582031 C 272.410156 309.859375 271.683594 308.789062 269.730469 308.789062 C 268.464844 308.789062 267.8125 309.398438 267.8125 309.398438 C 267.8125 308.058594 269.269531 307.371094 270.917969 307.371094 C 273.367188 307.371094 274.59375 308.902344 274.59375 311.277344 C 274.59375 315.070312 271.875 316.335938 268.464844 316.335938 Z M 268.464844 316.21875" fill="#ad895f"></path></g><g clip-path="url(#43ed867fdc)"><path fill-rule="nonzero" fill-opacity="1" d="M 290.648438 316.105469 C 290.648438 316.105469 289.878906 316.066406 288.617188 316.066406 C 287.390625 316.066406 286.585938 316.105469 286.585938 316.105469 C 286.894531 315.914062 287.3125 315.492188 287.3125 314.648438 C 287.3125 313.84375 286.894531 312.386719 286.355469 310.664062 L 285.898438 309.171875 L 280.378906 309.171875 C 279.804688 311.238281 279.421875 313.191406 279.421875 314.457031 C 279.421875 315.605469 279.726562 315.953125 280.035156 316.144531 C 280.035156 316.144531 279.308594 316.105469 278.003906 316.105469 C 276.894531 316.105469 276.242188 316.144531 276.242188 316.144531 C 276.546875 315.875 276.816406 315.566406 277.085938 314.839844 C 277.542969 313.730469 279.308594 305.1875 282.523438 299.554688 C 282.523438 299.554688 282.832031 299.59375 283.75 299.59375 C 284.671875 299.59375 285.054688 299.554688 285.054688 299.554688 L 288.386719 310.664062 C 289.34375 313.882812 289.726562 315.300781 290.609375 316.144531 C 290.609375 316.144531 289.804688 316.105469 288.617188 316.105469 Z M 283.75 301.777344 C 283.558594 301.125 283.484375 300.664062 283.484375 300.664062 C 282.910156 301.585938 281.757812 304.574219 280.800781 307.714844 L 285.476562 307.714844 L 283.710938 301.777344 Z M 283.75 301.777344" fill="#ad895f"></path></g><g clip-path="url(#39c702c078)"><path fill-rule="nonzero" fill-opacity="1" d="M 303.941406 316.105469 C 303.941406 316.105469 303.328125 316.066406 302.371094 316.066406 C 301.296875 316.066406 300.835938 316.105469 300.835938 316.105469 C 300.835938 316.105469 301.066406 315.914062 301.066406 315.414062 C 301.066406 312.386719 299 308.402344 296.433594 307.792969 C 298.578125 307.636719 300.644531 306.871094 300.644531 303.921875 C 300.644531 301.125 298.882812 300.78125 296.699219 300.78125 C 296.085938 300.78125 295.472656 300.820312 295.472656 300.820312 L 295.472656 308.480469 C 295.472656 314.34375 295.550781 314.765625 296.050781 315.683594 L 296.242188 316.066406 C 296.242188 316.066406 295.742188 316.027344 294.515625 316.027344 C 293.289062 316.027344 292.714844 316.066406 292.714844 316.066406 L 292.90625 315.683594 C 293.367188 314.839844 293.480469 314.648438 293.480469 307.675781 C 293.480469 300.703125 293.40625 300.820312 292.90625 299.898438 L 292.714844 299.515625 C 292.714844 299.515625 293.328125 299.554688 294.25 299.554688 C 294.9375 299.554688 295.855469 299.515625 296.507812 299.515625 C 299.839844 299.515625 302.753906 299.976562 302.753906 303.730469 C 302.753906 304.765625 302.410156 307.40625 299.191406 307.984375 C 302.867188 309.363281 302.867188 315.070312 303.671875 315.914062 L 303.863281 316.105469 Z M 303.941406 316.105469" fill="#ad895f"></path></g><g clip-path="url(#0a5c1538e5)"><path fill-rule="nonzero" fill-opacity="1" d="M 316.238281 315.453125 L 316.238281 315.914062 C 316.238281 315.914062 315.128906 316.179688 312.597656 316.179688 C 310.070312 316.179688 309.035156 315.953125 308.195312 315.222656 C 307.273438 314.378906 307.160156 313.347656 307.160156 311.355469 L 307.160156 304.6875 C 307.160156 302.734375 307.273438 301.546875 308.230469 300.664062 C 309.074219 299.9375 310.070312 299.554688 312.636719 299.554688 C 314.78125 299.554688 316.160156 299.707031 316.160156 299.707031 C 316.160156 299.707031 316.160156 300.050781 316.160156 300.820312 C 316.160156 301.699219 316.238281 302.121094 316.238281 302.160156 C 316.238281 302.160156 316.046875 301.890625 315.394531 301.507812 C 314.898438 301.238281 314.015625 300.894531 312.523438 300.894531 C 311.566406 300.894531 310.222656 300.933594 309.648438 301.890625 C 309.304688 302.464844 309.191406 302.925781 309.191406 304.765625 L 309.191406 307.179688 L 312.214844 307.179688 C 313.328125 307.179688 314.207031 307.0625 314.78125 306.71875 C 315.394531 306.375 315.585938 306.144531 315.625 306.105469 C 315.625 306.105469 315.550781 306.796875 315.550781 307.828125 C 315.550781 308.863281 315.625 309.476562 315.625 309.515625 C 315.625 309.515625 315.433594 309.285156 314.78125 308.902344 C 314.207031 308.59375 313.328125 308.441406 312.214844 308.441406 L 309.191406 308.441406 L 309.191406 311.007812 C 309.191406 312.847656 309.265625 313.347656 309.609375 313.882812 C 310.1875 314.839844 311.601562 314.800781 312.484375 314.800781 C 314.9375 314.800781 315.703125 313.882812 316.546875 312.65625 C 316.546875 312.65625 316.390625 313.652344 316.277344 315.453125 Z M 316.238281 315.453125" fill="#ad895f"></path></g></svg>
