<svg xmlns="http://www.w3.org/2000/svg" width="1200" height="820" viewBox="0 0 1200 820" role="img" aria-labelledby="title desc">
  <title id="title">Référencement local Boucherie Walima</title>
  <desc id="desc">Maquette éditoriale associant carte locale, fiche établissement et cohérence des informations.</desc>
  <defs><filter id="s" x="-20%" y="-20%" width="140%" height="150%"><feDropShadow dx="0" dy="16" stdDeviation="22" flood-color="#351416" flood-opacity=".16"/></filter></defs>
  <rect width="1200" height="820" rx="36" fill="#f7f5f2"/>
  <g filter="url(#s)">
    <rect x="92" y="82" width="1016" height="650" rx="30" fill="#fff"/>
    <rect x="92" y="82" width="1016" height="86" rx="30" fill="#18090a"/>
    <text x="140" y="137" fill="#fff" font-family="Arial, sans-serif" font-size="24" font-weight="700">Visibilité locale</text>
    <rect x="140" y="212" width="570" height="454" rx="22" fill="#eeeae4"/>
    <path d="M140 308L710 235M140 530L710 475M255 212L310 666M515 212L470 666" stroke="#fff" stroke-width="18" opacity=".9"/>
    <path d="M140 420C270 390 350 440 470 402S620 330 710 345" fill="none" stroke="#c6d9c2" stroke-width="54"/>
    <path d="M140 420C270 390 350 440 470 402S620 330 710 345" fill="none" stroke="#fff" stroke-width="5" stroke-dasharray="12 12"/>
    <circle cx="425" cy="408" r="70" fill="#fff" opacity=".85"/>
    <path d="M425 337c-39 0-70 31-70 69 0 50 70 101 70 101s70-51 70-101c0-38-31-69-70-69z" fill="#ec181f"/>
    <circle cx="425" cy="405" r="25" fill="#fff"/>
    <rect x="752" y="212" width="308" height="454" rx="22" fill="#fff" stroke="#e5e1dc" stroke-width="2"/>
    <rect x="752" y="212" width="308" height="112" rx="22" fill="#ec181f"/>
    <circle cx="804" cy="267" r="27" fill="#fff"/><text x="804" y="276" text-anchor="middle" fill="#ec181f" font-family="Arial, sans-serif" font-size="25" font-weight="700">W</text>
    <text x="846" y="258" fill="#fff" font-family="Arial, sans-serif" font-size="21" font-weight="700">Boucherie</text><text x="846" y="284" fill="#fff" font-family="Arial, sans-serif" font-size="21" font-weight="700">Walima</text>
    <g font-family="Arial, sans-serif">
      <text x="788" y="372" fill="#18090a" font-size="17" font-weight="700">Informations cohérentes</text>
      <circle cx="790" cy="414" r="8" fill="#39a96b"/><text x="810" y="420" fill="#555" font-size="16">Adresse et zone desservie</text>
      <circle cx="790" cy="458" r="8" fill="#39a96b"/><text x="810" y="464" fill="#555" font-size="16">Horaires et coordonnées</text>
      <circle cx="790" cy="502" r="8" fill="#39a96b"/><text x="810" y="508" fill="#555" font-size="16">Site et contenus locaux</text>
      <circle cx="790" cy="546" r="8" fill="#39a96b"/><text x="810" y="552" fill="#555" font-size="16">Signaux de confiance</text>
    </g>
    <rect x="788" y="586" width="236" height="48" rx="24" fill="#18090a"/><text x="906" y="616" text-anchor="middle" fill="#fff" font-family="Arial, sans-serif" font-size="16" font-weight="700">Parcours local optimisé</text>
  </g>
</svg>
